<?xml version="1.0" encoding="utf-8" standalone="no"?>
<!DOCTYPE svg PUBLIC "-//W3C//DTD SVG 1.1//EN"
  "http://www.w3.org/Graphics/SVG/1.1/DTD/svg11.dtd">
<svg xmlns:xlink="http://www.w3.org/1999/xlink" width="342.872727pt" height="179.6pt" viewBox="0 0 342.872727 179.6" xmlns="http://www.w3.org/2000/svg" version="1.1">
 <metadata>
  <rdf:RDF xmlns:dc="http://purl.org/dc/elements/1.1/" xmlns:cc="http://creativecommons.org/ns#" xmlns:rdf="http://www.w3.org/1999/02/22-rdf-syntax-ns#">
   <cc:Work>
    <dc:type rdf:resource="http://purl.org/dc/dcmitype/StillImage"/>
    <dc:date>2026-07-31T20:59:13.216395</dc:date>
    <dc:format>image/svg+xml</dc:format>
    <dc:creator>
     <cc:Agent>
      <dc:title>Matplotlib v3.10.8, https://matplotlib.org/</dc:title>
     </cc:Agent>
    </dc:creator>
   </cc:Work>
  </rdf:RDF>
 </metadata>
 <defs>
  <style type="text/css">*{stroke-linejoin: round; stroke-linecap: butt}</style>
 </defs>
 <g id="figure_1">
  <g id="patch_1">
   <path d="M 0 179.6 
L 342.872727 179.6 
L 342.872727 0 
L 0 0 
L 0 179.6 
z
" style="fill: none"/>
  </g>
  <g id="axes_1">
   <g id="patch_2">
    <path d="M 141.572129 57.736644 
C 116.451381 64.334831 94.211898 79.075828 78.349766 99.642325 
C 62.487634 120.208823 53.88 145.46353 53.88 171.436364 
L 89.8 171.436364 
C 89.8 153.399674 95.777523 135.861683 106.792893 121.579393 
C 117.808262 107.297103 133.252348 97.060299 150.697312 92.478225 
z
" clip-path="url(#pede4f04a0a)" style="fill: #0072b2; stroke: #ffffff; stroke-width: 1.5; stroke-linejoin: miter"/>
   </g>
   <g id="patch_3">
    <path d="M 129.958261 13.520087 
C 95.068332 22.684234 64.180161 43.157841 42.149422 71.722422 
C 20.118683 100.287002 8.163636 135.362984 8.163636 171.436364 
L 53.88 171.436364 
C 53.88 145.46353 62.487634 120.208823 78.349766 99.642325 
C 94.211898 79.075828 116.451381 64.334831 141.572129 57.736644 
z
" clip-path="url(#pede4f04a0a)" style="fill: #0072b2; opacity: 0.45; stroke: #ffffff; stroke-width: 1.5; stroke-linejoin: miter"/>
   </g>
   <g id="patch_4">
    <path d="M 203.576844 58.359009 
C 193.502052 55.495406 183.08959 53.991046 172.616261 53.885921 
C 162.142933 53.780797 151.702372 55.075847 141.572129 57.736644 
L 150.697312 92.478225 
C 157.732203 90.630449 164.982592 89.731109 172.255737 89.804112 
C 179.528882 89.877115 186.759758 90.92181 193.756142 92.910423 
z
" clip-path="url(#pede4f04a0a)" style="fill: #009e73; stroke: #ffffff; stroke-width: 1.5; stroke-linejoin: miter"/>
   </g>
   <g id="patch_5">
    <path d="M 216.07592 14.384482 
C 202.083153 10.407255 187.621401 8.317867 173.075111 8.171861 
C 158.528821 8.025854 144.028043 9.824535 129.958261 13.520087 
L 141.572129 57.736644 
C 151.702372 55.075847 162.142933 53.780797 172.616261 53.885921 
C 183.08959 53.991046 193.502052 55.495406 203.576844 58.359009 
z
" clip-path="url(#pede4f04a0a)" style="fill: #009e73; opacity: 0.45; stroke: #ffffff; stroke-width: 1.5; stroke-linejoin: miter"/>
   </g>
   <g id="patch_6">
    <path d="M 283.239109 135.109449 
C 277.278001 116.763043 266.891665 100.162879 252.999656 86.778653 
C 239.107647 73.394426 222.132409 63.63314 203.576844 58.359009 
L 193.756142 92.910423 
C 206.64195 96.573014 218.43031 103.351685 228.077539 112.646287 
C 237.724767 121.940888 244.9375 133.46878 249.077159 146.20934 
z
" clip-path="url(#pede4f04a0a)" style="fill: #e69f00; stroke: #ffffff; stroke-width: 1.5; stroke-linejoin: miter"/>
   </g>
   <g id="patch_7">
    <path d="M 326.717955 120.982316 
C 318.438637 95.501197 304.013171 72.445413 284.718714 53.85621 
C 265.424257 35.267006 241.847537 21.709664 216.07592 14.384482 
L 203.576844 58.359009 
C 222.132409 63.63314 239.107647 73.394426 252.999656 86.778653 
C 266.891665 100.162879 277.278001 116.763043 283.239109 135.109449 
z
" clip-path="url(#pede4f04a0a)" style="fill: #e69f00; opacity: 0.45; stroke: #ffffff; stroke-width: 1.5; stroke-linejoin: miter"/>
   </g>
   <g id="patch_8">
    <path d="M 288.992727 171.436364 
C 288.992727 165.277964 288.508799 159.129076 287.545413 153.046497 
C 286.582027 146.963918 285.142159 140.966435 283.239109 135.109449 
L 249.077159 146.20934 
C 250.398722 150.276691 251.39863 154.44161 252.067648 158.665623 
C 252.736666 162.889636 253.072727 167.159698 253.072727 171.436364 
z
" clip-path="url(#pede4f04a0a)" style="fill: #cc79a7; stroke: #ffffff; stroke-width: 1.5; stroke-linejoin: miter"/>
   </g>
   <g id="patch_9">
    <path d="M 334.709091 171.436364 
C 334.709091 162.883031 334.036969 154.342908 332.698933 145.894882 
C 331.360897 137.446855 329.36108 129.117018 326.717955 120.982316 
L 283.239109 135.109449 
C 285.142159 140.966435 286.582027 146.963918 287.545413 153.046497 
C 288.508799 159.129076 288.992727 165.277964 288.992727 171.436364 
z
" clip-path="url(#pede4f04a0a)" style="fill: #cc79a7; opacity: 0.45; stroke: #ffffff; stroke-width: 1.5; stroke-linejoin: miter"/>
   </g>
  </g>
 </g>
 <defs>
  <clipPath id="pede4f04a0a">
   <rect x="0" y="-0" width="342.872727" height="179.6"/>
  </clipPath>
 </defs>
</svg>
